<svg t="1750752882841" class="icon" viewBox="0 0 1024 1024" version="1.1" xmlns="http://www.w3.org/2000/svg" p-id="14555" width="14" height="14"><path d="M132 539c10.93 0 19.813 8.769 19.997 19.656L152 559v217.08c0 38.274 30.716 69.373 68.842 69.991l1.158 0.01h580c38.273 0 69.372-30.717 69.99-68.843l0.01-1.157V562.829c0-11.046 8.954-20 20-20 10.93 0 19.813 8.768 20 19.655v213.597c0 60.143-48.269 109.014-108.18 109.985l-1.82 0.015H222c-60.144 0-109.014-48.269-109.985-108.181l-0.015-1.82V559c0-11.046 8.954-20 20-20z m380-402c11.046 0 20 8.954 20 20v427.576l211.791-211.79c7.81-7.811 20.474-7.811 28.284 0 7.81 7.81 7.81 20.473 0 28.284L527.848 645.299a20.2 20.2 0 0 1-1.633 1.844A19.935 19.935 0 0 1 512.25 653h-0.567a19.935 19.935 0 0 1-13.965-5.857 20.2 20.2 0 0 1-1.636-1.849L251.858 401.07c-7.81-7.81-7.81-20.474 0-28.285 7.81-7.81 20.474-7.81 28.284 0L492 584.644V157c0-11.046 8.954-20 20-20z" fill="#ffffff" p-id="14556"></path></svg>